<svg xmlns="http://www.w3.org/2000/svg" width="512" height="512" viewBox="0 0 512 512"><defs><clipPath id="a" clipPathUnits="userSpaceOnUse"><path fill="#935643" stroke-linecap="round" stroke-linejoin="round" stroke-width="2" d="m -613.04688,550.84654 c -4.31434,0 -7.74048,2.67632 -7.7871,6 l -4.75,338.64062 0,5.83789 0,3.37891 0,17.0332 0,68.53516 0.0664,0 c -0.0394,0.24541 -0.0664,0.49417 -0.0664,0.74804 l 0,1.5918 c 0,3.324 3.47277,6 7.7871,6 l 388.14063,0 c 4.31435,0 7.78906,-2.676 7.78906,-6 l 0,-1.5918 c 0,-3.324 -3.47471,-6 -7.78906,-6 l -382.33594,0 0,-77.69531 382.33789,0 c 4.31435,0 7.8894,-2.67757 7.78711,-6 l -10.60584,-344.47851 c -0.1023,-3.32243 -3.47276,-6 -7.78711,-6 z"/></clipPath></defs><g transform="translate(679.725 -518.73)"><rect width="392.749" height="91.436" x="-625.584" y="899.762" fill="#ffe3a7"/><g fill="#d4a579"><rect width="389.679" height="3.495" x="-622.089" y="918.683" opacity=".6"/><rect width="389.679" height="3.495" x="-622.089" y="931.941" opacity=".6"/><rect width="389.679" height="3.495" x="-622.089" y="945.2" opacity=".6"/><rect width="389.679" height="3.495" x="-622.089" y="958.458" opacity=".6"/><rect width="389.679" height="3.495" x="-622.089" y="971.716" opacity=".6"/></g><g transform="matrix(-1.16759 0 0 .93968 -1006.546 -29.016)"><path fill="#f6851f" d="m -406.2663,996.04322 43.00493,0 0.2416,67.40658 -21.6733,-25.441 -21.33163,25.441 z"/><path fill="#ef771f" d="m -384.77249,996.04362 0.0707,41.97688 0.01,-0.011 21.67331,25.441 -0.2416,-67.40656 z"/></g><path fill="#935643" d="m -613.04688,10.484375 c -4.31434,0 -7.74048,2.676327 -7.7871,6 l -4.75,338.640625 0,5.83789 0,3.37891 0,17.0332 0,68.53516 0.0664,0 c -0.0394,0.24541 -0.0664,0.49417 -0.0664,0.74804 l 0,1.5918 c 0,3.324 3.47277,6 7.7871,6 l 388.14063,0 c 4.31435,0 7.78906,-2.676 7.78906,-6 l 0,-1.5918 c 0,-3.324 -3.47471,-6 -7.78906,-6 l -382.33594,0 0,-77.69531 382.33789,0 c 4.31435,0 7.8894,-2.67757 7.78711,-6 L -232.47303,16.484375 c -0.1023,-3.322425 -3.47276,-6 -7.78711,-6 z" transform="translate(0 540.362)"/><path d="m -612.60278,907.32896 0,4.95508 0.5957,0 0,72.42773 4.95508,0 0,-72.42773 374.13476,0 0,-4.95508 -379.68554,0 z" opacity=".15"/><rect width="104.652" height="480.833" x="-661.989" y="528.978" fill="#67362a" clip-path="url(#a)"/></g></svg>