<svg xmlns="http://www.w3.org/2000/svg" enable-background="new 0 0 50 50" viewBox="0 0 50 50"><path fill="#5F5E5D" d="M47.5612,25.7332v3.0384c-0.4744-0.535-1.7463-1.0094-2.2813-0.7873
			c-0.0807,0.0303-0.1514,0.0808-0.2322,0.1413v-2.3924c0-10.9221-8.9941-19.8153-20.0474-19.8153S4.9428,14.8111,4.9428,25.7332
			v2.3823c-0.0707-0.0505-0.1514-0.101-0.2221-0.1312c-0.535-0.2221-1.8069,0.2524-2.2813,0.7873v-3.0384
			c0-12.3152,10.1247-22.3389,22.561-22.3389S47.5612,13.4181,47.5612,25.7332z"/><path fill="#444445" d="M6.7931,32.9873l-2.4366,1.0093c0,0-2.5883-3.7518-2.0712-5.0003
			c0.2524-0.6092,1.8273-1.2616,2.4366-1.0093C5.9704,28.5041,6.7931,32.9873,6.7931,32.9873z"/><path fill="#696967" d="M12.6371,46.4307c0.1361,0.3286,0.3243,0.616,0.5608,0.8536c-4.3396,1.5112-9.8895-0.2571-11.6486-4.5039
			c-1.7591-4.2468,0.9149-9.4216,5.052-11.4216c0.0007,0.3353,0.0709,0.6715,0.207,1.0001L12.6371,46.4307z"/><path fill="#5F5E5D" d="M6.8084,32.359c-0.1361-0.3286-0.2063-0.6648-0.207-1.0001c-0.5332,0.2578-1.0409,0.5701-1.5192,0.9246
			L11.47,47.7047c0.5889-0.0876,1.1687-0.2256,1.728-0.4204c-0.2366-0.2376-0.4247-0.5249-0.5608-0.8536L6.8084,32.359z"/><path fill="#E9715F" d="M11.8643,30.2621l5.8306,14.0762c0.5759,1.3905-0.0819,2.9889-1.4831,3.5693
			c-1.3937,0.5773-2.9953-0.0814-3.5726-1.4751L6.8086,32.3563c-0.2898-0.6997-0.2671-1.4428,0.0006-2.0892
			c0.2678-0.6464,0.7829-1.1903,1.4825-1.4801C9.6855,28.2097,11.2871,28.8684,11.8643,30.2621z"/><path fill="#D75548" d="M11.8641,30.2648l5.8287,14.0717c0.5985,1.445-0.1346,3.0173-1.4808,3.5749
			c-0.9858,0.4084-2.0707,0.1963-2.8341-0.455c0.4153,0.0254,0.8448-0.034,1.2576-0.205c0.6994-0.2897,1.2162-0.8295,1.4827-1.473
			c0.2665-0.6435,0.2913-1.3941,0.0016-2.0935l-5.8287-14.0717c-0.171-0.4129-0.4327-0.7586-0.7493-1.0223
			C10.5352,28.6533,11.4558,29.279,11.8641,30.2648z"/><path fill="#444445" d="M43.2069,32.9873l2.4366,1.0093c0,0,2.5883-3.7518,2.0712-5.0003
			c-0.2524-0.6092-1.8273-1.2616-2.4366-1.0093C44.0296,28.5041,43.2069,32.9873,43.2069,32.9873z"/><path fill="#696967" d="M37.3629,46.4307c-0.1361,0.3286-0.3243,0.616-0.5608,0.8536c4.3396,1.5112,9.8895-0.2571,11.6486-4.5039
			c1.7591-4.2468-0.9149-9.4216-5.052-11.4216c-0.0007,0.3353-0.0709,0.6715-0.207,1.0001L37.3629,46.4307z"/><path fill="#5F5E5D" d="M43.1916,32.359c0.1361-0.3286,0.2063-0.6648,0.207-1.0001c0.5332,0.2578,1.0409,0.5701,1.5192,0.9246
			L38.53,47.7047c-0.5889-0.0876-1.1687-0.2256-1.728-0.4204c0.2366-0.2376,0.4247-0.5249,0.5608-0.8536L43.1916,32.359z"/><path fill="#E9715F" d="M38.1357,30.2621l-5.8306,14.0762c-0.576,1.3905,0.0819,2.9889,1.4831,3.5693
			c1.3937,0.5773,2.9953-0.0814,3.5726-1.4751l5.8306-14.0762c0.2898-0.6997,0.2671-1.4428-0.0006-2.0892
			c-0.2678-0.6464-0.7829-1.1903-1.4825-1.4801C40.3145,28.2097,38.7129,28.8684,38.1357,30.2621z"/><path fill="#D75548" d="M38.1359,30.2648l-5.8287,14.0717c-0.5985,1.445,0.1346,3.0173,1.4808,3.5749
			c0.9859,0.4084,2.0707,0.1963,2.8341-0.455c-0.4153,0.0254-0.8448-0.034-1.2576-0.205c-0.6994-0.2897-1.2162-0.8295-1.4827-1.473
			c-0.2665-0.6435-0.2913-1.3941-0.0016-2.0935l5.8287-14.0717c0.171-0.4129,0.4327-0.7586,0.7493-1.0223
			C39.4648,28.6533,38.5442,29.279,38.1359,30.2648z"/><path fill="#E9715F" d="M33.948,9.3463c-0.4165,0-0.8236-0.0887-1.2086-0.2637c-2.4378-1.0957-5.0408-1.6507-7.7394-1.6507
			c-2.6981,0-5.301,0.555-7.7374,1.6497c-0.3869,0.176-0.7936,0.2647-1.2105,0.2647c-0.9981,0-1.8902-0.5052-2.3866-1.352
			c-0.2479-0.4298-0.3746-0.898-0.3746-1.3899c0-1.106,0.6555-2.114,1.6694-2.5675C18.1203,2.6055,21.4976,1.88,25.0001,1.88
			c3.503,0,6.8802,0.7255,10.0377,2.1559c0.7354,0.3307,1.2963,0.9542,1.5403,1.7123c0.244,0.7576,0.1572,1.5561-0.2445,2.2481
			C35.8387,8.841,34.9466,9.3463,33.948,9.3463z"/><path fill="#896A9D" d="M35.9924 15.1856l-12.8022 2.4599v10.7869c-.573-.1462-1.2585-.1705-1.9793-.0239-1.6828.3422-2.8797 1.4423-2.6733 2.4572.2064 1.0148 1.7379 1.56 3.4207 1.2178 1.5033-.3058 2.611-1.2162 2.6847-2.1304h.0008V21.027l9.8948-1.9012v7.1856c-.5752-.1488-1.2648-.1743-1.9901-.0268-1.6828.3423-2.8797 1.4423-2.6733 2.4572.2064 1.0148 1.7379 1.56 3.4207 1.2178 1.5625-.3178 2.6907-1.2887 2.6809-2.2383h.0155V15.1856zM20.4681 20.3319l-4.1432-2.8077-2.9283 2.9283c-.1159-.1953-.2954-.3879-.5308-.5438-.5497-.3639-1.1733-.3902-1.3928-.0587-.2195.3315.0483.8953.598 1.2592.4911.3251 1.039.3787 1.3072.1505l.0002.0002 2.4231-2.4231 3.2023 2.17-1.9507 1.9507c-.1157-.1965-.296-.3907-.533-.5475-.5497-.3639-1.1733-.3902-1.3928-.0587-.2195.3315.0483.8953.598 1.2592.5105.3379 1.0803.3806 1.3354.1202l.0042.0042L20.4681 20.3319z"/></svg>