<svg xmlns="http://www.w3.org/2000/svg" width="512" height="512"><defs><clipPath id="a" clipPathUnits="userSpaceOnUse"><path fill="#9adbb6" d="m 457.14285,229.14285 a 205.71428,205.71428 0 1 1 -411.428556,0 205.71428,205.71428 0 1 1 411.428556,0 z" transform="matrix(-2.17313 0 0 -1.98677 1059.641 427.57)"/></clipPath></defs><g transform="matrix(1.77968 0 0 1.77968 -199.599 -1161.273)"><path fill="#ffc257" d="m -287.85714,-15.142854 c 0,24.2552773 -12.15227,43.918064 -27.14286,43.918064 -14.99059,0 -27.14286,-19.6627867 -27.14286,-43.918064 0,-24.255277 12.15227,-43.918064 27.14286,-43.918064 14.99059,0 27.14286,19.662787 27.14286,43.918064 z" transform="matrix(-1.1626 0 0 .66226 -43.498 730.033)"/><g fill="#f29f4a" transform="matrix(-1.27713 0 0 1.72454 575.575 -385.893)"><g transform="matrix(1.16573 0 0 1.72718 17.272 -479.009)"><g transform="matrix(-.73242 0 0 .73242 337.497 205.456)"><path d="m 762.44822,256 c 0,34.40934 -38.94152,62.30362 -86.97831,62.30362 -48.03679,0 -86.97831,-27.89428 -86.97831,-62.30362 0,-0.39985 0.005,-0.7997 0.0161,-1.19948 L 675.46991,256 z" clip-path="url(#a)" transform="matrix(-.559 0 0 -.61144 544.762 781.285)"/><path d="m 762.44822,256 c 0,34.40934 -38.94152,62.30362 -86.97831,62.30362 -48.03679,0 -86.97831,-27.89428 -86.97831,-62.30362 0,-0.39985 0.005,-0.7997 0.0161,-1.19948 L 675.46991,256 z" transform="matrix(-.34586 0 0 -.3783 348.445 721.882)"/></g><path d="m 762.44822,256 c 0,34.40934 -38.94152,62.30362 -86.97831,62.30362 -48.03679,0 -86.97831,-27.89428 -86.97831,-62.30362 0,-0.39985 0.005,-0.7997 0.0161,-1.19948 L 675.46991,256 z" transform="matrix(-.2157 0 0 -.33203 324.979 748.274)"/></g><path d="m -92.530113,-16.038538 c 0,5.450984 -16.847037,9.8698788 -37.628917,9.8698788 -20.78187,0 -37.62891,-4.4188948 -37.62891,-9.8698788 0,-5.450984 16.84704,-9.869879 37.62891,-9.869879 20.78188,0 37.628917,4.418895 37.628917,9.869879 z" transform="translate(307.2 679.774)"/><path d="m -92.530113,-16.038538 c 0,5.450984 -16.847037,9.8698788 -37.628917,9.8698788 -20.78187,0 -37.62891,-4.4188948 -37.62891,-9.8698788 0,-5.450984 16.84704,-9.869879 37.62891,-9.869879 20.78188,0 37.628917,4.418895 37.628917,9.869879 z" transform="translate(359.017 683.475)"/><path d="m -92.530113,-16.038538 c 0,5.450984 -16.847037,9.8698788 -37.628917,9.8698788 -20.78187,0 -37.62891,-4.4188948 -37.62891,-9.8698788 0,-5.450984 16.84704,-9.869879 37.62891,-9.869879 20.78188,0 37.628917,4.418895 37.628917,9.869879 z" transform="translate(423.171 679.774)"/><path d="m 417.00241,-64.154198 c 0,9.539222 -8.56161,17.27229 -19.12289,17.27229 -10.56128,0 -19.12289,-7.733068 -19.12289,-17.27229 0,-9.539222 8.56161,-17.272289 19.12289,-17.272289 10.56128,0 19.12289,7.733067 19.12289,17.272289 z" transform="matrix(1.25806 0 0 .71429 -161.898 704.625)"/></g><path fill="#ffb61c" d="m -287.85714,-15.142854 c 0,24.2552773 -12.15227,43.918064 -27.14286,43.918064 -14.99059,0 -27.14286,-19.6627867 -27.14286,-43.918064 0,-24.255277 12.15227,-43.918064 27.14286,-43.918064 14.99059,0 27.14286,19.662787 27.14286,43.918064 z" transform="matrix(-1.1626 0 0 .66226 -186.897 740.508)"/><g fill="#ffd37b" transform="matrix(.55212 0 0 .74159 95.548 290.218)"><path d="m 762.44822,256 c 0,34.40934 -38.94152,62.30362 -86.97831,62.30362 -48.03679,0 -86.97831,-27.89428 -86.97831,-62.30362 0,-0.39985 0.005,-0.7997 0.0161,-1.19948 L 675.46991,256 z" transform="matrix(-.559 0 0 -.61144 544.762 781.285)"/><path d="m 762.44822,256 c 0,34.40934 -38.94152,62.30362 -86.97831,62.30362 -48.03679,0 -86.97831,-27.89428 -86.97831,-62.30362 0,-0.39985 0.005,-0.7997 0.0161,-1.19948 L 675.46991,256 z" transform="matrix(-.34586 0 0 -.3783 348.445 721.882)"/></g><g fill="#ffe7b6" opacity=".9" transform="matrix(-.1642 0 0 .1562 285.302 764.849)"><rect width="423.666" height="196.13" x="49.684" y="-239.434" ry="98.065"/><path d="m 39.454546,46.363636 c 0,8.736141 -7.000639,15.818182 -15.636364,15.818182 -8.635725,0 -15.636364,-7.082041 -15.636364,-15.818182 0,-8.736141 7.000639,-15.818182 15.636364,-15.818182 8.635725,0 15.636364,7.082041 15.636364,15.818182 z" transform="matrix(8.4261 0 0 8.68577 -63.097 -583.4)"/><path d="m 39.454546,46.363636 c 0,8.736141 -7.000639,15.818182 -15.636364,15.818182 -8.635725,0 -15.636364,-7.082041 -15.636364,-15.818182 0,-8.736141 7.000639,-15.818182 15.636364,-15.818182 8.635725,0 15.636364,7.082041 15.636364,15.818182 z" transform="matrix(7.84146 0 0 7.55565 199.683 -513.128)"/><path d="m 39.454546,46.363636 c 0,8.736141 -7.000639,15.818182 -15.636364,15.818182 -8.635725,0 -15.636364,-7.082041 -15.636364,-15.818182 0,-8.736141 7.000639,-15.818182 15.636364,-15.818182 8.635725,0 15.636364,7.082041 15.636364,15.818182 z" transform="matrix(7.84146 0 0 7.55565 80.842 -612.214)"/></g><path fill="#ffc257" d="m -287.85714,-15.142854 c 0,24.2552773 -12.15227,43.918064 -27.14286,43.918064 -14.99059,0 -27.14286,-19.6627867 -27.14286,-43.918064 0,-24.255277 12.15227,-43.918064 27.14286,-43.918064 14.99059,0 27.14286,19.662787 27.14286,43.918064 z" transform="matrix(-1.1626 0 0 .66226 -10.149 750.744)"/><g fill="#ffd664" opacity=".9" transform="matrix(-.77641 0 0 1.04285 437.629 103.73)"><path d="m 762.44822,256 c 0,34.40934 -38.94152,62.30362 -86.97831,62.30362 -48.03679,0 -86.97831,-27.89428 -86.97831,-62.30362 0,-0.39985 0.005,-0.7997 0.0161,-1.19948 L 675.46991,256 z" transform="matrix(-.559 0 0 -.61144 544.762 781.285)"/><path d="m 762.44822,256 c 0,34.40934 -38.94152,62.30362 -86.97831,62.30362 -48.03679,0 -86.97831,-27.89428 -86.97831,-62.30362 0,-0.39985 0.005,-0.7997 0.0161,-1.19948 L 675.46991,256 z" transform="matrix(-.34586 0 0 -.3783 348.445 721.882)"/></g><path fill="#f6f6f6" d="m 353.63628,912.86431 46.20951,-162.45478 -287.69157,0 43.22827,162.45478 z"/><path fill="#e32d3c" d="M266.13208 908.68908l4.7953-154.10432-29.85476 0 4.48594 154.10432zM177.24622 908.68903l-16.23872-153.94216-30.53331 0 30.94815 154.32179zM224.06396 908.47159l-8.77503-153.72472-30.53331 0 22.80593 153.72472z"/><g transform="matrix(.6717 0 0 .37575 379.833 527.088)"><path fill="#e32d3c" d="M-70.211228 1015.5652l24.175618-409.69044 45.45686198 0-46.07445898 410.70064zM-139.91175 1014.9865l13.06394-409.11174 45.456859 0-33.952629 409.11174z"/></g><path fill="#fff" stroke="#e32d3c" stroke-width="5.2" d="m -146.86617,219.05577 c 0,31.24194 -40.9793,56.56854 -91.52983,56.56854 -50.55052,0 -91.52982,-25.3266 -91.52982,-56.56854 0,-31.24194 40.9793,-56.56854 91.52982,-56.56854 50.55053,0 91.52983,25.3266 91.52983,56.56854 z" transform="matrix(-.5418 0 0 .40993 125.432 773.86)"/></g></svg>